<svg width="19" height="13" viewBox="0 0 19 13" fill="none" xmlns="http://www.w3.org/2000/svg">
<path d="M0.181963 0.905962C0.181993 0.726733 0.222874 0.55154 0.299433 0.402541C0.375992 0.253542 0.484793 0.137429 0.612076 0.0688849C0.739359 0.00034122 0.879404 -0.0175536 1.0145 0.0174638C1.1496 0.0524813 1.27369 0.138838 1.37106 0.265612L9.46354 10.7945L17.556 0.265612C17.6874 0.100549 17.8633 0.00921313 18.0459 0.0112777C18.2285 0.0133423 18.4032 0.108642 18.5323 0.276651C18.6615 0.444659 18.7347 0.671934 18.7363 0.909525C18.7379 1.14712 18.6677 1.37601 18.5408 1.54692L9.95571 12.7168C9.8251 12.8867 9.64799 12.9821 9.46331 12.9821C9.27863 12.9821 9.10151 12.8867 8.97091 12.7168L0.385798 1.54692C0.321135 1.46273 0.26985 1.3628 0.234877 1.25282C0.199902 1.14284 0.181923 1.02498 0.181963 0.905962Z" fill="white"/>
</svg>
