<svg width="25" height="13" viewBox="0 0 25 13" fill="none" xmlns="http://www.w3.org/2000/svg">
<path d="M0 0.905962C3.8147e-05 0.726733 0.0532265 0.55154 0.152836 0.402541C0.252447 0.253542 0.394005 0.137429 0.559608 0.0688849C0.725214 0.00034122 0.907423 -0.0175536 1.0832 0.0174638C1.25897 0.0524813 1.42042 0.138838 1.54711 0.265612L12.076 10.7945L22.605 0.265612C22.7759 0.100549 23.0048 0.00921313 23.2423 0.0112777C23.4799 0.0133423 23.7072 0.108642 23.8752 0.276651C24.0432 0.444659 24.1385 0.671934 24.1406 0.909525C24.1427 1.14712 24.0513 1.37601 23.8863 1.54692L12.7164 12.7168C12.5465 12.8867 12.316 12.9821 12.0757 12.9821C11.8355 12.9821 11.605 12.8867 11.4351 12.7168L0.265203 1.54692C0.18107 1.46273 0.114347 1.3628 0.0688438 1.25282C0.0233402 1.14284 -5.34058e-05 1.02498 0 0.905962Z" fill="white"/>
</svg>
