<svg width="53" height="50" viewBox="0 0 53 50" fill="none" xmlns="http://www.w3.org/2000/svg">
<g filter="url(#filter0_d)">
<path d="M25.6288 0.545575C26.0114 -0.13307 26.9886 -0.13307 27.3712 0.545574L32.4647 9.58234C32.6074 9.83552 32.8531 10.0141 33.138 10.0716L43.3065 12.1233C44.0701 12.2773 44.3721 13.2068 43.8449 13.7803L36.8244 21.417C36.6277 21.631 36.5338 21.9199 36.5672 22.2086L37.7581 32.5134C37.8476 33.2873 37.0569 33.8617 36.3486 33.5375L26.9162 29.2205C26.6519 29.0995 26.3481 29.0995 26.0838 29.2205L16.6514 33.5375C15.9431 33.8617 15.1524 33.2873 15.2419 32.5134L16.4328 22.2086C16.4662 21.9199 16.3723 21.631 16.1756 21.417L9.15513 13.7803C8.6279 13.2068 8.92989 12.2773 9.69353 12.1233L19.862 10.0716C20.1469 10.0141 20.3926 9.83552 20.5353 9.58234L25.6288 0.545575Z" fill="#F3967C"/>
</g>
<defs>
<filter id="filter0_d" x="0.890381" y="0.0366211" width="51.2191" height="49.5932" filterUnits="userSpaceOnUse" color-interpolation-filters="sRGB">
<feFlood flood-opacity="0" result="BackgroundImageFix"/>
<feColorMatrix in="SourceAlpha" type="matrix" values="0 0 0 0 0 0 0 0 0 0 0 0 0 0 0 0 0 0 127 0"/>
<feOffset dy="8"/>
<feGaussianBlur stdDeviation="4"/>
<feColorMatrix type="matrix" values="0 0 0 0 0 0 0 0 0 0 0 0 0 0 0 0 0 0 0.08 0"/>
<feBlend mode="normal" in2="BackgroundImageFix" result="effect1_dropShadow"/>
<feBlend mode="normal" in="SourceGraphic" in2="effect1_dropShadow" result="shape"/>
</filter>
</defs>
</svg>
