<svg width="75" height="75" viewBox="0 0 75 75" fill="none" xmlns="http://www.w3.org/2000/svg">
<path d="M70.4201 37.4514C70.4201 55.5363 55.7594 70.1971 37.6744 70.1971C19.5895 70.1971 4.92871 55.5363 4.92871 37.4514C4.92871 19.3664 19.5895 4.70569 37.6744 4.70569C55.7594 4.70569 70.4201 19.3664 70.4201 37.4514Z" fill="#68C2D0" stroke="#369CB7" stroke-width="9"/>
<path d="M37.6743 55.1831C34.4954 55.1968 31.3772 54.3124 28.6788 52.6317C25.9805 50.951 23.8116 48.5423 22.4221 45.6831C22.34 45.5245 22.2904 45.3511 22.2762 45.173C22.262 44.995 22.2835 44.8159 22.3394 44.6463C22.3954 44.4766 22.4846 44.3199 22.6019 44.1852C22.7192 44.0505 22.8622 43.9406 23.0226 43.8619C23.1829 43.7832 23.3574 43.7373 23.5357 43.7269C23.714 43.7165 23.8926 43.7418 24.061 43.8013C24.2294 43.8609 24.3842 43.9534 24.5164 44.0735C24.6485 44.1937 24.7554 44.339 24.8306 44.501C26.0106 46.9009 27.8394 48.9223 30.1096 50.3358C32.3798 51.7494 35.0007 52.4987 37.675 52.4987C40.3493 52.4987 42.9702 51.7494 45.2404 50.3358C47.5106 48.9223 49.3394 46.9009 50.5194 44.501C50.5947 44.339 50.7015 44.1937 50.8337 44.0735C50.9658 43.9534 51.1207 43.8609 51.2891 43.8013C51.4575 43.7418 51.6361 43.7165 51.8144 43.7269C51.9927 43.7373 52.1671 43.7832 52.3275 43.8619C52.4878 43.9406 52.6308 44.0505 52.7481 44.1852C52.8654 44.3199 52.9547 44.4766 53.0106 44.6463C53.0665 44.8159 53.088 44.995 53.0738 45.173C53.0596 45.3511 53.01 45.5245 52.9279 45.6831C51.5383 48.5425 49.3693 50.9513 46.6706 52.632C43.972 54.3127 40.8535 55.197 37.6743 55.1831Z" fill="#382A12"/>
<path d="M45.4055 37.3506C45.1775 37.3511 44.9531 37.2934 44.7535 37.1831C44.554 37.0728 44.3858 36.9134 44.265 36.72C44.1441 36.5266 44.0746 36.3056 44.0628 36.0779C44.0511 35.8502 44.0976 35.6232 44.1979 35.4185C44.9536 33.8807 46.1251 32.5854 47.5795 31.6796C49.0339 30.7738 50.7131 30.2937 52.4265 30.2937C54.1399 30.2937 55.8191 30.7738 57.2735 31.6796C58.7279 32.5854 59.8994 33.8807 60.6551 35.4185C60.8105 35.7377 60.8331 36.1055 60.7179 36.4413C60.6027 36.7771 60.3591 37.0536 60.0404 37.2102C59.7218 37.3667 59.3541 37.3906 59.0178 37.2766C58.6816 37.1626 58.4043 36.92 58.2466 36.6019C57.7117 35.5147 56.8829 34.599 55.8543 33.9587C54.8256 33.3184 53.6382 32.979 52.4265 32.979C51.2148 32.979 50.0274 33.3184 48.9987 33.9587C47.97 34.599 47.1413 35.5147 46.6064 36.6019C46.4959 36.8262 46.3249 37.0152 46.1127 37.1475C45.9005 37.2798 45.6556 37.3501 45.4055 37.3506Z" fill="#382A12"/>
<path d="M29.943 37.3506C29.6915 37.3511 29.4449 37.281 29.2314 37.1481C29.0179 37.0153 28.846 36.8251 28.7353 36.5992C28.2005 35.512 27.3717 34.5963 26.3431 33.956C25.3144 33.3157 24.127 32.9763 22.9153 32.9763C21.7036 32.9763 20.5162 33.3157 19.4875 33.956C18.4588 34.5963 17.6301 35.512 17.0952 36.5992C16.9375 36.9173 16.6602 37.1599 16.3239 37.2739C15.9877 37.3879 15.62 37.364 15.3013 37.2075C14.9827 37.0509 14.7391 36.7744 14.6239 36.4386C14.5087 36.1028 14.5313 35.735 14.6867 35.4158C15.4424 33.878 16.6139 32.5828 18.0683 31.677C19.5227 30.7711 21.2019 30.291 22.9153 30.291C24.6287 30.291 26.3078 30.7711 27.7623 31.677C29.2167 32.5828 30.3882 33.878 31.1439 35.4158C31.2442 35.6205 31.2907 35.8475 31.279 36.0752C31.2672 36.303 31.1976 36.5239 31.0768 36.7173C30.9559 36.9107 30.7878 37.0701 30.5882 37.1804C30.3887 37.2908 30.1643 37.3484 29.9363 37.348L29.943 37.3506Z" fill="#382A12"/>
</svg>
