<svg width="93" height="93" viewBox="0 0 93 93" fill="none" xmlns="http://www.w3.org/2000/svg">
<path d="M46.5 93C20.8594 93 0 72.1406 0 46.5C0 20.8594 20.8594 0 46.5 0C72.1406 0 93 20.8594 93 46.5C93 72.1406 72.1406 93 46.5 93Z" fill="#9DD765"/>
<path d="M93 46.5C93 20.8594 72.1406 0 46.5 0V93C72.1406 93 93 72.1406 93 46.5Z" fill="#9DD765"/>
<path d="M67.8188 76.3022L46.5001 65.0939L25.1814 76.3022L29.255 52.5661L12.0044 35.7537L35.8421 32.2892L46.5001 10.6898L57.1581 32.289L80.9958 35.7535L63.7452 52.5659L67.8188 76.3022Z" fill="#C2FE86"/>
<path d="M67.8187 76.3022L63.7451 52.5661L80.9957 35.7535L57.158 32.289L46.5 10.6898V65.0939L67.8187 76.3022Z" fill="#C2FE86"/>
</svg>
