<svg width="208" height="208" viewBox="0 0 208 208" fill="none" xmlns="http://www.w3.org/2000/svg">
<path d="M104 208C46.6532 208 0 161.347 0 104C0 46.6532 46.6532 0 104 0C161.347 0 208 46.6532 208 104C208 161.347 161.347 208 104 208Z" fill="#9DD765"/>
<path d="M193 104C193 54.9244 153.076 15 104 15V193C153.076 193 193 153.076 193 104Z" fill="#9DD765"/>
<path d="M142.121 132.71L105.105 113.25L68.09 132.71L75.1629 91.4976L45.2109 62.3064L86.6001 56.291L105.105 18.7883L123.611 56.2907L165 62.3061L135.048 91.4973L142.121 132.71Z" fill="#C2FE86"/>
<path d="M134.77 121.499L129.102 88.5783L153.105 65.2604L119.936 60.4554L105.105 30.4988V105.954L134.77 121.499Z" fill="#C2FE86"/>
</svg>
