<svg width="77" height="89" viewBox="0 0 77 89" fill="none" xmlns="http://www.w3.org/2000/svg">
<path d="M38.6699 55.1401L38.9057 76.9332L20.1518 88.0301L1.16153 77.3415L0.925778 55.5484L19.6803 44.4439L38.6699 55.1401Z" fill="#369CB7"/>
<path d="M19.9132 66.237L20.1489 88.0301L1.16397 77.3414L0.928223 55.5483L19.9132 66.237Z" fill="#0E80A4"/>
<path d="M38.6699 55.1401L38.9056 76.9332L20.1488 88.0301L19.913 66.237L38.6699 55.1401Z" fill="#EDEDED"/>
<path d="M38.1982 11.554L38.434 33.3472L19.6801 44.4441L0.68985 33.7555L0.454098 11.9624L19.2086 0.857855L38.1982 11.554Z" fill="#0E80A4"/>
<path d="M19.4418 22.6509L19.6775 44.444L0.692539 33.7553L0.456787 11.9622L19.4418 22.6509Z" fill="#EDEDED"/>
<path d="M38.1982 11.5537L38.434 33.3468L19.6771 44.4437L19.4413 22.6506L38.1982 11.5537Z" fill="#369CB7"/>
<path d="M76.1782 32.9385L76.414 54.7316L57.6594 65.8285L38.6698 55.1399L38.4341 33.3468L57.1879 22.2423L76.1782 32.9385Z" fill="#EDEDED"/>
<path d="M76.1762 32.9388L76.412 54.7319L57.6627 65.8288L57.4269 44.0357L76.1762 32.9388Z" fill="#369CB7"/>
<path d="M57.4269 44.0356L57.6626 65.8287L38.6701 55.1401L38.4343 33.347L57.4269 44.0356Z" fill="#0E80A4"/>
</svg>
