<svg width="152" height="175" viewBox="0 0 152 175" fill="none" xmlns="http://www.w3.org/2000/svg">
<path d="M76.2003 109.121L76.6689 152.441L39.3897 174.5L1.64047 153.253L1.17184 109.932L38.4524 87.8587L76.2003 109.121Z" fill="#369CB7"/>
<path d="M38.9149 131.179L39.3836 174.5L1.6449 153.253L1.17627 109.932L38.9149 131.179Z" fill="#0E80A4"/>
<path d="M76.2 109.121L76.6686 152.442L39.3833 174.5L38.9147 131.18L76.2 109.121Z" fill="#EDEDED"/>
<path d="M75.2628 22.4795L75.7315 65.8002L38.4522 87.8589L0.703028 66.6119L0.234397 23.2912L37.515 1.21746L75.2628 22.4795Z" fill="#0E80A4"/>
<path d="M37.9779 44.538L38.4465 87.8587L0.707828 66.6116L0.239197 23.2909L37.9779 44.538Z" fill="#EDEDED"/>
<path d="M75.2627 22.479L75.7314 65.7996L38.4461 87.8583L37.9775 44.5376L75.2627 22.479Z" fill="#369CB7"/>
<path d="M150.76 64.9881L151.229 108.309L113.948 130.367L76.2001 109.12L75.7315 65.7998L113.011 43.7261L150.76 64.9881Z" fill="#EDEDED"/>
<path d="M150.755 64.9884L151.224 108.309L113.954 130.368L113.485 87.0469L150.755 64.9884Z" fill="#369CB7"/>
<path d="M113.485 87.0471L113.954 130.368L76.2002 109.121L75.7316 65.8002L113.485 87.0471Z" fill="#0E80A4"/>
</svg>
