<svg width="40" height="48" viewBox="0 0 40 48" fill="none" xmlns="http://www.w3.org/2000/svg">
<mask id="path-1-inside-1" fill="white">
<path d="M19.6 0C9.8735 0 1.96 7.9135 1.96 17.64V19.6H0V47.04H39.2V19.6H37.24V17.64C37.24 7.9135 29.3265 0 19.6 0ZM3.92 17.64C3.92 8.99444 10.9544 1.96 19.6 1.96C28.2456 1.96 35.28 8.99444 35.28 17.64V19.6H3.92V17.64ZM37.24 45.08H1.96V21.56H37.24V45.08Z"/>
</mask>
<path d="M19.6 0C9.8735 0 1.96 7.9135 1.96 17.64V19.6H0V47.04H39.2V19.6H37.24V17.64C37.24 7.9135 29.3265 0 19.6 0ZM3.92 17.64C3.92 8.99444 10.9544 1.96 19.6 1.96C28.2456 1.96 35.28 8.99444 35.28 17.64V19.6H3.92V17.64ZM37.24 45.08H1.96V21.56H37.24V45.08Z" fill="#0E80A4"/>
<path d="M1.96 19.6V21.6H3.96V19.6H1.96ZM0 19.6V17.6H-2V19.6H0ZM0 47.04H-2V49.04H0V47.04ZM39.2 47.04V49.04H41.2V47.04H39.2ZM39.2 19.6H41.2V17.6H39.2V19.6ZM37.24 19.6H35.24V21.6H37.24V19.6ZM35.28 19.6V21.6H37.28V19.6H35.28ZM3.92 19.6H1.92V21.6H3.92V19.6ZM37.24 45.08V47.08H39.24V45.08H37.24ZM1.96 45.08H-0.0400002V47.08H1.96V45.08ZM1.96 21.56V19.56H-0.0400002V21.56H1.96ZM37.24 21.56H39.24V19.56H37.24V21.56ZM19.6 -2C8.76893 -2 -0.0400002 6.80893 -0.0400002 17.64H3.96C3.96 9.01807 10.9781 2 19.6 2V-2ZM-0.0400002 17.64V19.6H3.96V17.64H-0.0400002ZM1.96 17.6H0V21.6H1.96V17.6ZM-2 19.6V47.04H2V19.6H-2ZM0 49.04H39.2V45.04H0V49.04ZM41.2 47.04V19.6H37.2V47.04H41.2ZM39.2 17.6H37.24V21.6H39.2V17.6ZM39.24 19.6V17.64H35.24V19.6H39.24ZM39.24 17.64C39.24 6.80893 30.4311 -2 19.6 -2V2C28.2219 2 35.24 9.01807 35.24 17.64H39.24ZM5.92 17.64C5.92 10.099 12.059 3.96 19.6 3.96V-0.04C9.84987 -0.04 1.92 7.88987 1.92 17.64H5.92ZM19.6 3.96C27.141 3.96 33.28 10.099 33.28 17.64H37.28C37.28 7.88987 29.3501 -0.04 19.6 -0.04V3.96ZM33.28 17.64V19.6H37.28V17.64H33.28ZM35.28 17.6H3.92V21.6H35.28V17.6ZM5.92 19.6V17.64H1.92V19.6H5.92ZM37.24 43.08H1.96V47.08H37.24V43.08ZM3.96 45.08V21.56H-0.0400002V45.08H3.96ZM1.96 23.56H37.24V19.56H1.96V23.56ZM35.24 21.56V45.08H39.24V21.56H35.24Z" fill="#0E80A4" mask="url(#path-1-inside-1)"/>
<path d="M19.7847 41.3143L19.6 41.3623L19.4153 41.3143C19.4764 41.3181 19.538 41.32 19.6 41.32C19.662 41.32 19.7236 41.3181 19.7847 41.3143Z" fill="#0E80A4" stroke="#0E80A4" stroke-width="2"/>
</svg>
