<svg width="47" height="47" viewBox="0 0 47 47" fill="none" xmlns="http://www.w3.org/2000/svg">
<g clip-path="url(#clip0)">
<mask id="path-1-inside-1" fill="white">
<path d="M23.6 0C13.8735 0 5.96 7.9135 5.96 17.64V19.6H4V47.04H43.2V19.6H41.24V17.64C41.24 7.9135 33.3265 0 23.6 0ZM7.92 17.64C7.92 8.99444 14.9544 1.96 23.6 1.96C32.2456 1.96 39.28 8.99444 39.28 17.64V19.6H7.92V17.64ZM41.24 45.08H5.96V21.56H41.24V45.08Z"/>
</mask>
<path d="M23.6 0C13.8735 0 5.96 7.9135 5.96 17.64V19.6H4V47.04H43.2V19.6H41.24V17.64C41.24 7.9135 33.3265 0 23.6 0ZM7.92 17.64C7.92 8.99444 14.9544 1.96 23.6 1.96C32.2456 1.96 39.28 8.99444 39.28 17.64V19.6H7.92V17.64ZM41.24 45.08H5.96V21.56H41.24V45.08Z" fill="#0E80A4"/>
<path d="M5.96 19.6V21.6H7.96V19.6H5.96ZM4 19.6V17.6H2V19.6H4ZM4 47.04H2V49.04H4V47.04ZM43.2 47.04V49.04H45.2V47.04H43.2ZM43.2 19.6H45.2V17.6H43.2V19.6ZM41.24 19.6H39.24V21.6H41.24V19.6ZM39.28 19.6V21.6H41.28V19.6H39.28ZM7.92 19.6H5.92V21.6H7.92V19.6ZM41.24 45.08V47.08H43.24V45.08H41.24ZM5.96 45.08H3.96V47.08H5.96V45.08ZM5.96 21.56V19.56H3.96V21.56H5.96ZM41.24 21.56H43.24V19.56H41.24V21.56ZM23.6 -2C12.7689 -2 3.96 6.80893 3.96 17.64H7.96C7.96 9.01807 14.9781 2 23.6 2V-2ZM3.96 17.64V19.6H7.96V17.64H3.96ZM5.96 17.6H4V21.6H5.96V17.6ZM2 19.6V47.04H6V19.6H2ZM4 49.04H43.2V45.04H4V49.04ZM45.2 47.04V19.6H41.2V47.04H45.2ZM43.2 17.6H41.24V21.6H43.2V17.6ZM43.24 19.6V17.64H39.24V19.6H43.24ZM43.24 17.64C43.24 6.80893 34.4311 -2 23.6 -2V2C32.2219 2 39.24 9.01807 39.24 17.64H43.24ZM9.92 17.64C9.92 10.099 16.059 3.96 23.6 3.96V-0.04C13.8499 -0.04 5.92 7.88987 5.92 17.64H9.92ZM23.6 3.96C31.141 3.96 37.28 10.099 37.28 17.64H41.28C41.28 7.88987 33.3501 -0.04 23.6 -0.04V3.96ZM37.28 17.64V19.6H41.28V17.64H37.28ZM39.28 17.6H7.92V21.6H39.28V17.6ZM9.92 19.6V17.64H5.92V19.6H9.92ZM41.24 43.08H5.96V47.08H41.24V43.08ZM7.96 45.08V21.56H3.96V45.08H7.96ZM5.96 23.56H41.24V19.56H5.96V23.56ZM39.24 21.56V45.08H43.24V21.56H39.24Z" fill="#0E80A4" mask="url(#path-1-inside-1)"/>
<path d="M24.1047 32.8743L23.92 32.9223L23.7353 32.8743C23.7964 32.8781 23.858 32.88 23.92 32.88C23.982 32.88 24.0436 32.8781 24.1047 32.8743Z" fill="#0E80A4" stroke="#0E80A4" stroke-width="2"/>
</g>
<defs>
<clipPath id="clip0">
<rect width="47" height="47" fill="white"/>
</clipPath>
</defs>
</svg>
