<svg width="112" height="85" viewBox="0 0 112 85" fill="none" xmlns="http://www.w3.org/2000/svg">
<path d="M16.4756 10.5776C16.476 12.4234 16.9655 14.2362 17.8941 15.8313H0.714478L0.714478 33.011C2.3115 32.0846 4.12442 31.5953 5.97068 31.5925C7.81695 31.5897 9.63136 32.0734 11.2312 32.9948C12.8311 33.9163 14.1599 35.2431 15.0838 36.8415C16.0078 38.44 16.4943 40.2537 16.4943 42.0999C16.4943 43.9462 16.0078 45.7599 15.0838 47.3583C14.1599 48.9567 12.8311 50.2835 11.2312 51.205C9.63136 52.1265 7.81695 52.6102 5.97068 52.6074C4.12442 52.6045 2.3115 52.1153 0.714478 51.1889L0.714478 68.3685H17.8941C16.9677 69.9656 16.4785 71.7785 16.4757 73.6247C16.4728 75.471 16.9565 77.2854 17.878 78.8853C18.7995 80.4851 20.1263 81.8139 21.7247 82.7379C23.3231 83.6618 25.1368 84.1483 26.9831 84.1483C28.8293 84.1483 30.643 83.6618 32.2415 82.7379C33.8399 81.8139 35.1667 80.4851 36.0882 78.8853C37.0097 77.2854 37.4933 75.471 37.4905 73.6247C37.4877 71.7785 36.9984 69.9656 36.072 68.3685H53.2517V51.1889C51.6547 52.1153 49.8417 52.6045 47.9955 52.6074C46.1492 52.6102 44.3348 52.1265 42.7349 51.205C41.1351 50.2835 39.8063 48.9567 38.8823 47.3583C37.9584 45.7599 37.4719 43.9462 37.4719 42.0999C37.4719 40.2537 37.9584 38.44 38.8823 36.8415C39.8063 35.2431 41.1351 33.9163 42.7349 32.9948C44.3348 32.0734 46.1492 31.5897 47.9955 31.5925C49.8417 31.5953 51.6547 32.0846 53.2517 33.011L53.2517 15.8313H36.072C36.8816 14.4357 37.3589 12.8724 37.4669 11.2627C37.575 9.65288 37.3108 8.03984 36.6951 6.54858C36.0793 5.05732 35.1283 3.72789 33.916 2.66336C32.7036 1.59882 31.2624 0.827766 29.704 0.409973C28.1456 -0.00782013 26.512 -0.0611343 24.9297 0.254166C23.3474 0.569458 21.8589 1.2449 20.5797 2.22812C19.3005 3.21134 18.2649 4.47593 17.5532 5.92387C16.8415 7.37181 16.4728 8.9642 16.4756 10.5776Z" fill="#0E80A4"/>
<path d="M100.554 31.3594C98.7079 31.3598 96.8952 31.8492 95.3 32.7779V15.5983H78.1204C79.0468 17.1953 79.536 19.0082 79.5388 20.8545C79.5417 22.7007 79.058 24.5152 78.1365 26.115C77.215 27.7149 75.8882 29.0437 74.2898 29.9676C72.6914 30.8916 70.8777 31.378 69.0314 31.378C67.1852 31.378 65.3715 30.8916 63.773 29.9676C62.1746 29.0437 60.8478 27.7149 59.9263 26.115C59.0048 24.5152 58.5212 22.7007 58.524 20.8545C58.5268 19.0082 59.0161 17.1953 59.9425 15.5983H42.7628V32.7779C41.1658 31.8515 39.3529 31.3623 37.5066 31.3594C35.6603 31.3566 33.8459 31.8403 32.2461 32.7618C30.6462 33.6833 29.3174 35.0101 28.3935 36.6085C27.4695 38.2069 26.983 40.0206 26.983 41.8669C26.983 43.7131 27.4695 45.5268 28.3935 47.1252C29.3174 48.7237 30.6462 50.0505 32.2461 50.972C33.8459 51.8934 35.6603 52.3771 37.5066 52.3743C39.3529 52.3715 41.1658 51.8822 42.7628 50.9558V68.1355H59.9425C59.0161 66.5385 58.5268 64.7255 58.524 62.8793C58.5212 61.033 59.0048 59.2186 59.9263 57.6187C60.8478 56.0189 62.1746 54.6901 63.773 53.7661C65.3715 52.8422 67.1852 52.3557 69.0314 52.3557C70.8777 52.3557 72.6914 52.8422 74.2898 53.7661C75.8882 54.6901 77.215 56.0189 78.1365 57.6187C79.058 59.2186 79.5417 61.033 79.5388 62.8793C79.536 64.7255 79.0468 66.5385 78.1204 68.1355H95.3V50.9558C96.6956 51.7654 98.2589 52.2427 99.8687 52.3507C101.478 52.4588 103.092 52.1946 104.583 51.5788C106.074 50.963 107.403 50.0121 108.468 48.7997C109.533 47.5874 110.304 46.1461 110.721 44.5878C111.139 43.0294 111.192 41.3958 110.877 39.8135C110.562 38.2312 109.886 36.7427 108.903 35.4635C107.92 34.1843 106.655 33.1487 105.207 32.437C103.76 31.7253 102.167 31.3566 100.554 31.3594Z" fill="#369CB7"/>
</svg>
