<svg width="206" height="157" viewBox="0 0 206 157" fill="none" xmlns="http://www.w3.org/2000/svg">
<path d="M29.4 19.6347C29.4007 23.0777 30.3137 26.4591 32.046 29.4347H0L0 61.4807C2.97899 59.7526 6.36072 58.84 9.80464 58.8347C13.2486 58.8294 16.6331 59.7316 19.6173 61.4505C22.6016 63.1694 25.0803 65.6443 26.8038 68.626C28.5273 71.6076 29.4347 74.9907 29.4347 78.4347C29.4347 81.8786 28.5273 85.2617 26.8038 88.2433C25.0803 91.225 22.6016 93.6999 19.6173 95.4188C16.6331 97.1377 13.2486 98.0399 9.80464 98.0346C6.36072 98.0293 2.97899 97.1167 0 95.3887L0 127.435H32.046C30.3179 130.414 29.4053 133.795 29.4 137.239C29.3947 140.683 30.297 144.068 32.0159 147.052C33.7348 150.036 36.2097 152.515 39.1913 154.238C42.173 155.962 45.5561 156.869 49 156.869C52.4439 156.869 55.827 155.962 58.8087 154.238C61.7903 152.515 64.2652 150.036 65.9841 147.052C67.703 144.068 68.6053 140.683 68.6 137.239C68.5947 133.795 67.6821 130.414 65.954 127.435H98V95.3887C95.021 97.1167 91.6393 98.0293 88.1954 98.0346C84.7514 98.0399 81.3669 97.1377 78.3827 95.4188C75.3984 93.6999 72.9197 91.225 71.1962 88.2433C69.4727 85.2617 68.5653 81.8786 68.5653 78.4347C68.5653 74.9907 69.4727 71.6076 71.1962 68.626C72.9197 65.6443 75.3984 63.1694 78.3827 61.4505C81.3669 59.7316 84.7514 58.8294 88.1954 58.8347C91.6393 58.84 95.021 59.7526 98 61.4807L98 29.4347H65.954C67.4641 26.8314 68.3544 23.9153 68.556 20.9125C68.7575 17.9097 68.2648 14.9009 67.1162 12.1191C65.9675 9.33742 64.1937 6.85759 61.9322 4.87186C59.6707 2.88614 56.9823 1.44786 54.0754 0.668533C51.1685 -0.110809 48.1212 -0.210251 45.1697 0.377884C42.2181 0.966034 39.4417 2.22595 37.0556 4.06C34.6694 5.89404 32.7377 8.25294 31.4101 10.9538C30.0825 13.6548 29.3947 16.6251 29.4 19.6347Z" fill="#0E80A4"/>
<path d="M186.235 58.3998C182.792 58.4004 179.41 59.3134 176.435 61.0458V28.9998H144.389C146.117 31.9787 147.029 35.3605 147.035 38.8044C147.04 42.2483 146.138 45.6328 144.419 48.6171C142.7 51.6014 140.225 54.0801 137.243 55.8036C134.262 57.5271 130.879 58.4345 127.435 58.4345C123.991 58.4345 120.608 57.5271 117.626 55.8036C114.644 54.0801 112.17 51.6014 110.451 48.6171C108.732 45.6328 107.829 42.2483 107.835 38.8044C107.84 35.3605 108.753 31.9787 110.481 28.9998H78.4347V61.0458C75.4557 59.3177 72.074 58.4051 68.6301 58.3998C65.1862 58.3945 61.8017 59.2967 58.8174 61.0156C55.8331 62.7345 53.3544 65.2094 51.6309 68.1911C49.9074 71.1727 49 74.5558 49 77.9998C49 81.4437 49.9074 84.8268 51.6309 87.8084C53.3544 90.7901 55.8331 93.265 58.8174 94.9839C61.8017 96.7028 65.1862 97.605 68.6301 97.5997C72.074 97.5944 75.4557 96.6818 78.4347 94.9538V127H110.481C108.753 124.021 107.84 120.639 107.835 117.195C107.829 113.751 108.732 110.367 110.451 107.382C112.17 104.398 114.644 101.919 117.626 100.196C120.608 98.4725 123.991 97.565 127.435 97.565C130.879 97.565 134.262 98.4725 137.243 100.196C140.225 101.919 142.7 104.398 144.419 107.382C146.138 110.367 147.04 113.751 147.035 117.195C147.029 120.639 146.117 124.021 144.389 127H176.435V94.9538C179.038 96.4639 181.954 97.3542 184.957 97.5557C187.96 97.7573 190.969 97.2646 193.75 96.1159C196.532 94.9673 199.012 93.1934 200.998 90.932C202.983 88.6705 204.422 85.9821 205.201 83.0752C205.98 80.1683 206.08 77.121 205.492 74.1694C204.903 71.2179 203.643 68.4415 201.809 66.0553C199.975 63.6692 197.616 61.7374 194.916 60.4098C192.215 59.0822 189.244 58.3944 186.235 58.3998Z" fill="#369CB7"/>
</svg>
