<svg width="182" height="180" viewBox="0 0 182 180" fill="none" xmlns="http://www.w3.org/2000/svg">
<path d="M110.387 132.123L0 40.2248H44.0465V0L132.512 119.793L127.55 129.691L110.387 132.123Z" fill="#C4C4C4"/>
<path d="M164.114 179.924L135.022 164.532L105.93 179.924L111.58 147.557L88.0596 124.599L120.52 119.912L135.012 90.4351L149.55 119.923L182 124.583L158.464 147.557L164.114 179.924Z" fill="#ADAEAF"/>
<path d="M71.0376 125.656C62.217 125.656 55.0415 118.48 55.0415 109.66V104.328H44.3774V109.66C44.3774 118.48 37.2019 125.656 28.3813 125.656H23.0493V136.32H28.3813C37.2019 136.32 44.3774 143.495 44.3774 152.316V157.648H55.0415V152.316C55.0415 143.495 62.217 136.32 71.0376 136.32H76.3696V125.656H71.0376Z" fill="#ADAEAF"/>
<path d="M145.686 40.3433C136.865 40.3433 129.69 33.1678 129.69 24.3472V19.0151H119.026V24.3472C119.026 33.1678 111.85 40.3433 103.03 40.3433H97.6978V51.0073H103.03C111.85 51.0073 119.026 58.1828 119.026 67.0034V72.3354H129.69V67.0034C129.69 58.1828 136.865 51.0073 145.686 51.0073H151.018V40.3433H145.686Z" fill="#ADAEAF"/>
<path d="M182 124.583L149.55 119.923L135.012 90.4355L120.52 119.912L113.503 120.925L164.114 179.924L158.464 147.557L182 124.583Z" fill="#ADAEAF"/>
</svg>
