<svg width="105" height="104" viewBox="0 0 105 104" fill="none" xmlns="http://www.w3.org/2000/svg">
<path d="M63.2215 75.7843L0.143066 23.271H25.3125V0.2854L75.8642 68.7383L73.0285 74.3947L63.2215 75.7843Z" fill="#C4C4C4"/>
<path d="M93.9225 103.099L77.2985 94.3036L60.6746 103.099L63.9031 84.6036L50.4629 71.4848L69.0119 68.8068L77.2927 51.9626L85.6001 68.8127L104.143 71.4758L90.694 84.6036L93.9225 103.099Z" fill="#ADAEAF"/>
<path d="M40.7358 72.0887C35.6955 72.0887 31.5952 67.9885 31.5952 62.9481V59.9012H25.5015V62.9481C25.5015 67.9885 21.4012 72.0887 16.3608 72.0887H13.314V78.1825H16.3608C21.4012 78.1825 25.5015 82.2828 25.5015 87.3231V90.37H31.5952V87.3231C31.5952 82.2828 35.6955 78.1825 40.7358 78.1825H43.7827V72.0887H40.7358Z" fill="#ADAEAF"/>
<path d="M83.3921 23.3387C78.3517 23.3387 74.2515 19.2385 74.2515 14.1981V11.1512H68.1577V14.1981C68.1577 19.2385 64.0574 23.3387 59.0171 23.3387H55.9702V29.4325H59.0171C64.0574 29.4325 68.1577 33.5328 68.1577 38.5731V41.62H74.2515V38.5731C74.2515 33.5328 78.3517 29.4325 83.3921 29.4325H86.439V23.3387H83.3921Z" fill="#ADAEAF"/>
<path d="M104.143 71.4759L85.6 68.8129L77.2926 51.9629L69.0118 68.8068L65.002 69.3855L93.9225 103.099L90.694 84.6036L104.143 71.4759Z" fill="#ADAEAF"/>
</svg>
