<svg width="115" height="115" viewBox="0 0 115 115" fill="none" xmlns="http://www.w3.org/2000/svg">
<path d="M110.071 57.5714C110.071 86.4874 86.6302 109.929 57.7141 109.929C28.798 109.929 5.35693 86.4874 5.35693 57.5714C5.35693 28.6553 28.798 5.21423 57.7141 5.21423C86.6302 5.21423 110.071 28.6553 110.071 57.5714Z" fill="#CFCFCF" stroke="#EDEDED" stroke-width="9"/>
<path d="M57.714 84.6397C52.8612 84.6606 48.1012 83.3105 43.982 80.7448C39.8628 78.1792 36.552 74.5023 34.4308 70.1376C34.3055 69.8954 34.2298 69.6307 34.2081 69.3589C34.1865 69.0871 34.2193 68.8137 34.3047 68.5548C34.39 68.2958 34.5263 68.0565 34.7053 67.8509C34.8844 67.6453 35.1027 67.4775 35.3475 67.3574C35.5923 67.2372 35.8585 67.1672 36.1307 67.1513C36.4029 67.1354 36.6756 67.1741 36.9326 67.2649C37.1897 67.3558 37.4261 67.4971 37.6278 67.6805C37.8296 67.8639 37.9927 68.0858 38.1076 68.333C39.9089 71.9966 42.7006 75.0823 46.1662 77.2401C49.6318 79.398 53.6326 80.5418 57.7151 80.5418C61.7976 80.5418 65.7984 79.398 69.264 77.2401C72.7296 75.0823 75.5213 71.9966 77.3226 68.333C77.4375 68.0858 77.6006 67.8639 77.8023 67.6805C78.0041 67.4971 78.2404 67.3558 78.4975 67.2649C78.7546 67.1741 79.0272 67.1354 79.2994 67.1513C79.5716 67.1672 79.8379 67.2372 80.0826 67.3574C80.3274 67.4775 80.5457 67.6453 80.7248 67.8509C80.9039 68.0565 81.0401 68.2958 81.1255 68.5548C81.2108 68.8137 81.2437 69.0871 81.222 69.3589C81.2003 69.6307 81.1246 69.8954 80.9993 70.1376C78.878 74.5026 75.5668 78.1797 71.4473 80.7454C67.3277 83.311 62.5672 84.661 57.714 84.6397Z" fill="#382A12"/>
<path d="M69.5163 57.4175C69.1682 57.4182 68.8257 57.3302 68.521 57.1617C68.2164 56.9933 67.9597 56.75 67.7752 56.4548C67.5907 56.1596 67.4845 55.8223 67.4666 55.4746C67.4487 55.127 67.5196 54.7805 67.6728 54.4679C68.8264 52.1205 70.6148 50.1432 72.835 48.7605C75.0552 47.3777 77.6185 46.6448 80.2341 46.6448C82.8497 46.6448 85.413 47.3777 87.6332 48.7605C89.8534 50.1432 91.6418 52.1205 92.7954 54.4679C93.0327 54.9552 93.0672 55.5167 92.8913 56.0293C92.7154 56.542 92.3435 56.964 91.8571 57.203C91.3707 57.4421 90.8094 57.4786 90.2961 57.3045C89.7828 57.1305 89.3594 56.7601 89.1187 56.2745C88.3021 54.6148 87.0371 53.217 85.4668 52.2395C83.8965 51.262 82.0838 50.7439 80.2341 50.7439C78.3844 50.7439 76.5717 51.262 75.0014 52.2395C73.4311 53.217 72.1661 54.6148 71.3495 56.2745C71.1808 56.617 70.9198 56.9054 70.5958 57.1074C70.2719 57.3093 69.898 57.4167 69.5163 57.4175Z" fill="#382A12"/>
<path d="M45.9111 57.4174C45.5272 57.4182 45.1508 57.3111 44.8249 57.1083C44.4989 56.9055 44.2366 56.6151 44.0676 56.2704C43.2511 54.6107 41.986 53.2129 40.4157 52.2354C38.8454 51.2579 37.0327 50.7398 35.1831 50.7398C33.3334 50.7398 31.5207 51.2579 29.9504 52.2354C28.3801 53.2129 27.115 54.6107 26.2985 56.2704C26.0577 56.756 25.6344 57.1263 25.1211 57.3004C24.6078 57.4744 24.0465 57.4379 23.56 57.1989C23.0736 56.9599 22.7017 56.5378 22.5259 56.0252C22.35 55.5125 22.3845 54.9511 22.6218 54.4638C23.7754 52.1163 25.5637 50.1391 27.7839 48.7563C30.0042 47.3736 32.5675 46.6406 35.1831 46.6406C37.7987 46.6406 40.362 47.3736 42.5822 48.7563C44.8024 50.1391 46.5908 52.1163 47.7444 54.4638C47.8975 54.7764 47.9685 55.1228 47.9506 55.4705C47.9327 55.8181 47.8265 56.1555 47.642 56.4506C47.4575 56.7458 47.2008 56.9891 46.8962 57.1576C46.5915 57.326 46.249 57.414 45.9009 57.4134L45.9111 57.4174Z" fill="#382A12"/>
</svg>
