<svg width="47" height="47" viewBox="0 0 47 47" fill="none" xmlns="http://www.w3.org/2000/svg">
<path d="M23.5 47C10.5418 47 0 36.4582 0 23.5C0 10.5418 10.5418 0 23.5 0C36.4582 0 47 10.5418 47 23.5C47 36.4582 36.4582 47 23.5 47Z" fill="#FFDF40"/>
<path d="M47 23.5C47 10.5418 36.4582 0 23.5 0V47C36.4582 47 47 36.4582 47 23.5Z" fill="#FFBE40"/>
<path d="M34.2739 38.5616L23.5 32.8971L12.726 38.5616L14.7847 26.5659L6.06665 18.0693L18.1137 16.3184L23.5 5.40259L28.8863 16.3183L40.9333 18.0692L32.2152 26.5658L34.2739 38.5616Z" fill="#FFBE40"/>
<path d="M34.274 38.5616L32.2153 26.5659L40.9333 18.0692L28.8863 16.3183L23.5 5.40259V32.8971L34.274 38.5616Z" fill="#FF9F40"/>
</svg>
