<svg width="199" height="199" viewBox="0 0 199 199" fill="none" xmlns="http://www.w3.org/2000/svg">
<path d="M194.5 99.5001C194.5 151.967 151.967 194.5 99.5001 194.5C47.033 194.5 4.5 151.967 4.5 99.5001C4.5 47.033 47.033 4.5 99.5001 4.5C151.967 4.5 194.5 47.033 194.5 99.5001Z" fill="#FEE87A" stroke="#EDEDED" stroke-width="9"/>
<path d="M99.5004 146.87C91.008 146.906 82.6779 144.543 75.4693 140.054C68.2608 135.564 62.4668 129.129 58.7547 121.491C58.5354 121.067 58.4029 120.604 58.365 120.128C58.3271 119.653 58.3846 119.174 58.534 118.721C58.6834 118.268 58.9217 117.849 59.2351 117.489C59.5485 117.129 59.9306 116.836 60.3589 116.625C60.7872 116.415 61.2532 116.293 61.7296 116.265C62.2059 116.237 62.683 116.305 63.1329 116.464C63.5828 116.623 63.9964 116.87 64.3495 117.191C64.7025 117.512 64.988 117.9 65.189 118.333C68.3413 124.744 73.2268 130.144 79.2916 133.92C85.3564 137.697 92.3578 139.698 99.5022 139.698C106.647 139.698 113.648 137.697 119.713 133.92C125.778 130.144 130.663 124.744 133.815 118.333C134.016 117.9 134.302 117.512 134.655 117.191C135.008 116.87 135.422 116.623 135.871 116.464C136.321 116.305 136.798 116.237 137.275 116.265C137.751 116.293 138.217 116.415 138.645 116.625C139.074 116.836 139.456 117.129 139.769 117.489C140.083 117.849 140.321 118.268 140.47 118.721C140.62 119.174 140.677 119.653 140.639 120.128C140.601 120.604 140.469 121.067 140.25 121.491C136.537 129.13 130.743 135.565 123.534 140.055C116.324 144.544 107.993 146.907 99.5004 146.87Z" fill="#382A12"/>
<path d="M120.154 99.2308C119.545 99.232 118.946 99.0779 118.413 98.7832C117.88 98.4884 117.43 98.0626 117.107 97.546C116.785 97.0294 116.599 96.4391 116.567 95.8307C116.536 95.2224 116.66 94.616 116.928 94.069C118.947 89.9609 122.077 86.5008 125.962 84.0809C129.847 81.6611 134.333 80.3785 138.911 80.3785C143.488 80.3785 147.974 81.6611 151.859 84.0809C155.744 86.5008 158.874 89.9609 160.893 94.069C161.308 94.9217 161.368 95.9043 161.061 96.8014C160.753 97.6986 160.102 98.4372 159.251 98.8555C158.4 99.2737 157.417 99.3376 156.519 99.033C155.621 98.7285 154.88 98.0803 154.459 97.2306C153.03 94.3261 150.816 91.88 148.068 90.1693C145.32 88.4587 142.147 87.552 138.911 87.552C135.674 87.552 132.501 88.4587 129.753 90.1693C127.005 91.88 124.791 94.3261 123.363 97.2306C123.067 97.8298 122.61 98.3346 122.044 98.688C121.477 99.0414 120.822 99.2294 120.154 99.2308Z" fill="#382A12"/>
<path d="M78.8457 99.2307C78.1739 99.2321 77.5152 99.0446 76.9448 98.6897C76.3744 98.3347 75.9152 97.8267 75.6196 97.2234C74.1907 94.3189 71.9768 91.8727 69.2288 90.1621C66.4808 88.4515 63.3085 87.5448 60.0716 87.5448C56.8347 87.5448 53.6624 88.4515 50.9144 90.1621C48.1664 91.8727 45.9525 94.3189 44.5236 97.2234C44.1023 98.0731 43.3614 98.7213 42.4631 99.0258C41.5649 99.3304 40.5826 99.2665 39.7313 98.8482C38.88 98.43 38.2293 97.6914 37.9215 96.7942C37.6137 95.8971 37.6741 94.9145 38.0893 94.0618C40.1081 89.9537 43.2377 86.4936 47.1231 84.0737C51.0085 81.6539 55.4943 80.3713 60.0716 80.3713C64.6489 80.3713 69.1347 81.6539 73.0201 84.0737C76.9055 86.4936 80.0351 89.9537 82.0539 94.0618C82.3219 94.6088 82.4461 95.2152 82.4148 95.8235C82.3834 96.4319 82.1975 97.0222 81.8747 97.5388C81.5518 98.0554 81.1026 98.4812 80.5695 98.7759C80.0364 99.0707 79.437 99.2248 78.8278 99.2236L78.8457 99.2307Z" fill="#382A12"/>
</svg>
